<svg width="108" height="36" viewBox="0 0 108 36" fill="none" xmlns="http://www.w3.org/2000/svg">
<rect width="108" height="36" rx="6" fill="#282828"/>
<path d="M11.204 7.78363C10.9615 8.02181 10.7998 8.41879 10.7998 8.89515V26.4414C10.7998 26.9177 10.9615 27.3147 11.204 27.5529L11.2848 27.6323L21.3079 17.7873V17.708V17.5492L11.204 7.78363Z" fill="url(#paint0_linear_590_9657)"/>
<path d="M24.6095 21.211L21.3081 17.8319V17.7495V17.5846L24.6095 14.2056L24.69 14.288L28.6356 16.5956C29.7629 17.255 29.7629 18.3264 28.6356 18.9857L24.6095 21.211Z" fill="url(#paint1_linear_590_9657)"/>
<path d="M24.8103 20.5487L21.4335 17.1245L11.3833 27.3158C11.7853 27.7234 12.3481 27.7234 13.0717 27.3973L24.8103 20.5487Z" fill="url(#paint2_linear_590_9657)"/>
<path d="M24.8103 14.2131L13.0717 7.46713C12.3481 7.06074 11.7853 7.14202 11.3833 7.54841L21.4335 17.7081L24.8103 14.2131Z" fill="url(#paint3_linear_590_9657)"/>
<path opacity="0.2" d="M24.8103 20.627L13.0819 27.2007C12.4348 27.6015 11.8686 27.5214 11.4642 27.2007L11.3833 27.2809L11.4642 27.361C11.8686 27.6817 12.4348 27.7619 13.0819 27.361L24.8103 20.627Z" fill="#1E2427"/>
<path opacity="0.12" d="M11.3836 26.9706C11.0333 26.7371 10.7998 26.3479 10.7998 25.8809V25.9587C10.7998 26.4257 11.0333 26.8149 11.3836 27.0484V26.9706Z" fill="#1E2427"/>
<path opacity="0.12" d="M28.7024 18.2086L24.8105 20.5438L24.8884 20.6272L28.7024 18.292C29.2473 17.9584 29.4808 17.5414 29.4808 17.1245C29.4808 17.5414 29.1695 17.9584 28.7024 18.2086Z" fill="#1E2427"/>
<path opacity="0.25" d="M12.8304 7.53433L28.6687 16.1189C29.156 16.4282 29.4809 16.7376 29.4809 17.1242C29.4809 16.7376 29.2372 16.3509 28.6687 16.0415L12.8304 7.45699C11.6932 6.83829 10.7998 7.37965 10.7998 8.61706V8.6944C10.7998 7.45699 11.6932 6.99296 12.8304 7.53433Z" fill="white"/>
<path d="M38.9359 11.2028C38.9359 11.87 38.7765 12.4538 38.3777 12.8708C37.8993 13.3712 37.3411 13.6214 36.6234 13.6214C35.9057 13.6214 35.3475 13.3712 34.8691 12.8708C34.3906 12.3704 34.1514 11.7866 34.1514 11.036C34.1514 10.2855 34.3906 9.70167 34.8691 9.20129C35.3475 8.6175 35.9057 8.36731 36.6234 8.36731C36.9424 8.36731 37.2613 8.45071 37.5803 8.6175C37.8993 8.7843 38.1385 8.95109 38.298 9.20129L37.8993 9.61828C37.5803 9.20129 37.1816 9.03449 36.6234 9.03449C36.1449 9.03449 35.6665 9.20129 35.3475 9.61828C34.9488 9.95187 34.7893 10.4523 34.7893 11.036C34.7893 11.6198 34.9488 12.1202 35.3475 12.4538C35.7462 12.7874 36.1449 13.0376 36.6234 13.0376C37.1816 13.0376 37.5803 12.8708 37.979 12.4538C38.2183 12.2036 38.3777 11.87 38.3777 11.453H36.6234V10.7858H38.9359C38.9359 10.9526 38.9359 11.036 38.9359 11.2028Z" fill="white"/>
<path d="M42.6043 9.11797H40.4512V10.7025H42.4448V11.2863H40.4512V12.8709H42.6043V13.4546H39.8133V8.45079H42.6043V9.11797Z" fill="white"/>
<path d="M45.2358 13.4546H44.5978V9.11797H43.2422V8.45079H46.5117V9.03457H45.156V13.4546H45.2358Z" fill="white"/>
<path d="M48.9038 13.4546V8.45079H49.5418V13.4546H48.9038Z" fill="white"/>
<path d="M52.2532 13.4546H51.6153V9.11797H50.2596V8.45079H53.5291V9.03457H52.1735V13.4546H52.2532Z" fill="white"/>
<path d="M59.8285 12.7874C59.3501 13.2878 58.7919 13.538 58.0742 13.538C57.3565 13.538 56.7983 13.2878 56.3198 12.7874C55.8414 12.287 55.6021 11.7032 55.6021 10.9526C55.6021 10.2021 55.8414 9.61827 56.3198 9.11789C56.7983 8.6175 57.3565 8.36731 58.0742 8.36731C58.7919 8.36731 59.3501 8.6175 59.8285 9.11789C60.307 9.61827 60.5462 10.2021 60.5462 10.9526C60.5462 11.7032 60.307 12.287 59.8285 12.7874ZM56.7983 12.3704C57.1173 12.704 57.5957 12.9542 58.0742 12.9542C58.5526 12.9542 59.0311 12.7874 59.3501 12.3704C59.669 12.0368 59.9083 11.5364 59.9083 10.9526C59.9083 10.3689 59.7488 9.86847 59.3501 9.53488C59.0311 9.20129 58.5526 8.95109 58.0742 8.95109C57.5957 8.95109 57.1173 9.20129 56.7983 9.53488C56.4793 9.86847 56.2401 10.3689 56.2401 10.9526C56.2401 11.5364 56.3996 12.0368 56.7983 12.3704Z" fill="white"/>
<path d="M61.4237 13.4546V8.45079H62.1414L64.454 12.3705V8.45079H65.0919V13.4546H64.454L61.9819 9.36816V13.4546H61.4237Z" fill="white"/>
<path d="M54.2733 19.5074C52.4847 19.5074 51.0687 20.8673 51.0687 22.756C51.0687 24.5691 52.4847 26.0046 54.2733 26.0046C56.0619 26.0046 57.4779 24.6447 57.4779 22.756C57.4779 20.8673 56.0619 19.5074 54.2733 19.5074ZM54.2733 24.6447C53.3044 24.6447 52.4847 23.8136 52.4847 22.6804C52.4847 21.5472 53.3044 20.7162 54.2733 20.7162C55.2421 20.7162 56.0619 21.4716 56.0619 22.6804C56.0619 23.8136 55.2421 24.6447 54.2733 24.6447ZM47.3424 19.5074C45.5538 19.5074 44.1378 20.8673 44.1378 22.756C44.1378 24.5691 45.5538 26.0046 47.3424 26.0046C49.131 26.0046 50.547 24.6447 50.547 22.756C50.547 20.8673 49.131 19.5074 47.3424 19.5074ZM47.3424 24.6447C46.3736 24.6447 45.5538 23.8136 45.5538 22.6804C45.5538 21.5472 46.3736 20.7162 47.3424 20.7162C48.3112 20.7162 49.131 21.4716 49.131 22.6804C49.131 23.8136 48.3112 24.6447 47.3424 24.6447ZM39.0701 20.4895V21.8494H42.2747C42.2001 22.6049 41.902 23.2093 41.5294 23.587C41.0822 24.0403 40.337 24.5691 39.0701 24.5691C37.0579 24.5691 35.5674 22.9826 35.5674 20.9428C35.5674 18.903 37.1324 17.3165 39.0701 17.3165C40.1134 17.3165 40.9332 17.7698 41.5294 18.2986L42.4982 17.3165C41.6785 16.561 40.6351 15.9566 39.1446 15.9566C36.4617 15.9566 34.1514 18.2231 34.1514 20.9428C34.1514 23.6625 36.4617 25.929 39.1446 25.929C40.6351 25.929 41.6785 25.4757 42.5728 24.4936C43.4671 23.587 43.7652 22.3027 43.7652 21.3205C43.7652 21.0184 43.7652 20.7162 43.6906 20.4895H39.0701ZM72.8301 21.5472C72.532 20.7917 71.7868 19.5074 70.1472 19.5074C68.5077 19.5074 67.1662 20.7917 67.1662 22.756C67.1662 24.5691 68.5077 26.0046 70.2963 26.0046C71.7123 26.0046 72.6066 25.098 72.9047 24.5691L71.8613 23.8136C71.4887 24.3425 71.0415 24.7202 70.2963 24.7202C69.551 24.7202 69.1039 24.418 68.7312 23.7381L72.9792 21.9249L72.8301 21.5472ZM68.5077 22.6049C68.5077 21.3961 69.4765 20.7162 70.1472 20.7162C70.6689 20.7162 71.1906 21.0184 71.3396 21.3961L68.5077 22.6049ZM65.0795 25.7024H66.4955V16.2588H65.0795V25.7024ZM62.8437 20.1873C62.4711 19.8096 61.8749 19.4318 61.1296 19.4318C59.5646 19.4318 58.0741 20.8673 58.0741 22.6804C58.0741 24.4936 59.4901 25.8535 61.1296 25.8535C61.8749 25.8535 62.4711 25.4757 62.7692 25.098H62.8437V25.6268C62.8437 26.8356 62.173 27.5155 61.1296 27.5155C60.3098 27.5155 59.7136 26.9111 59.5646 26.3823L58.3722 26.9111C58.7448 27.7422 59.6391 28.7998 61.2042 28.7998C62.8437 28.7998 64.1852 27.8177 64.1852 25.4757V19.734H62.8437V20.1873ZM61.2042 24.6447C60.2353 24.6447 59.4155 23.8136 59.4155 22.6804C59.4155 21.5472 60.2353 20.7162 61.2042 20.7162C62.173 20.7162 62.9182 21.5472 62.9182 22.6804C62.9182 23.8136 62.173 24.6447 61.2042 24.6447ZM79.3884 16.2588H76.0347V25.7024H77.4507V22.1516H79.3884C80.9534 22.1516 82.4439 21.0184 82.4439 19.2052C82.4439 17.392 80.9534 16.2588 79.3884 16.2588ZM79.3884 20.7917H77.3762V17.5431H79.3884C80.4318 17.5431 81.028 18.4497 81.028 19.1296C81.028 19.9607 80.4318 20.7917 79.3884 20.7917ZM88.0334 19.5074C86.99 19.5074 85.9466 19.9607 85.574 20.9428L86.841 21.4716C87.1391 20.9428 87.5862 20.7917 88.1079 20.7917C88.8531 20.7917 89.5239 21.245 89.5984 22.0005V22.076C89.3748 21.9249 88.7786 21.6983 88.1824 21.6983C86.841 21.6983 85.4995 22.4538 85.4995 23.8136C85.4995 25.098 86.6174 25.929 87.8098 25.929C88.7786 25.929 89.2258 25.4757 89.5984 25.0224H89.6729V25.7779H91.0144V22.1516C90.8653 20.414 89.5984 19.5074 88.0334 19.5074ZM87.8098 24.6447C87.3626 24.6447 86.6919 24.418 86.6919 23.8136C86.6919 23.0582 87.5117 22.8315 88.1824 22.8315C88.7786 22.8315 89.0767 22.9826 89.4494 23.1337C89.3748 24.0403 88.6296 24.6447 87.8098 24.6447ZM95.7095 19.6585L94.1445 23.7381H94.0699L92.4304 19.6585H90.9399L93.3992 25.4002L91.9832 28.5732H93.3992L97.2 19.6585H95.7095ZM83.1892 25.7024H84.6052V16.2588H83.1892V25.7024Z" fill="white"/>
<defs>
<linearGradient id="paint0_linear_590_9657" x1="17.2319" y1="8.68452" x2="8.76497" y2="17.2939" gradientUnits="userSpaceOnUse">
<stop stop-color="#00A0FF"/>
<stop offset="0.00657445" stop-color="#00A1FF"/>
<stop offset="0.2601" stop-color="#00BEFF"/>
<stop offset="0.5122" stop-color="#00D2FF"/>
<stop offset="0.7604" stop-color="#00DFFF"/>
<stop offset="1" stop-color="#00E3FF"/>
</linearGradient>
<linearGradient id="paint1_linear_590_9657" x1="30.0992" y1="17.6889" x2="10.6154" y2="17.6889" gradientUnits="userSpaceOnUse">
<stop stop-color="#FFE000"/>
<stop offset="0.4087" stop-color="#FFBD00"/>
<stop offset="0.7754" stop-color="#FFA500"/>
<stop offset="1" stop-color="#FF9C00"/>
</linearGradient>
<linearGradient id="paint2_linear_590_9657" x1="22.9694" y1="20.3787" x2="8.16296" y2="34.9618" gradientUnits="userSpaceOnUse">
<stop stop-color="#FF3A44"/>
<stop offset="1" stop-color="#C31162"/>
</linearGradient>
<linearGradient id="paint3_linear_590_9657" x1="8.87534" y1="5.91783" x2="15.4821" y2="12.4452" gradientUnits="userSpaceOnUse">
<stop stop-color="#32A071"/>
<stop offset="0.0685" stop-color="#2DA771"/>
<stop offset="0.4762" stop-color="#15CF74"/>
<stop offset="0.8009" stop-color="#06E775"/>
<stop offset="1" stop-color="#00F076"/>
</linearGradient>
</defs>
</svg>
