<svg width="12" height="12" viewBox="0 0 12 12" fill="none" xmlns="http://www.w3.org/2000/svg">
<path d="M6.00033 0.166672C2.78616 0.166672 0.166992 2.78584 0.166992 6.00001C0.166992 9.21417 2.78616 11.8333 6.00033 11.8333C9.21449 11.8333 11.8337 9.21417 11.8337 6.00001C11.8337 2.78584 9.21449 0.166672 6.00033 0.166672ZM8.78866 4.65834L5.48116 7.96584C5.39949 8.04751 5.28866 8.09417 5.17199 8.09417C5.05533 8.09417 4.94449 8.04751 4.86283 7.96584L3.21199 6.31501C3.04283 6.14584 3.04283 5.86584 3.21199 5.69667C3.38116 5.52751 3.66116 5.52751 3.83033 5.69667L5.17199 7.03834L8.17033 4.04001C8.33949 3.87084 8.61949 3.87084 8.78866 4.04001C8.95783 4.20917 8.95783 4.48334 8.78866 4.65834Z" fill="#2EB1BE"/>
</svg>
