<svg width="108" height="36" viewBox="0 0 108 36" fill="none" xmlns="http://www.w3.org/2000/svg">
<rect width="108" height="36" rx="6" fill="#282828"/>
<path d="M72.43 16.253V18.2641H71.1905V19.583H72.43V24.0642C72.43 25.5944 73.1106 26.2064 74.8229 26.2064C75.1238 26.2064 75.4104 26.17 75.6612 26.1263V24.822C75.4462 24.8438 75.3101 24.8584 75.0737 24.8584C74.3071 24.8584 73.9703 24.4941 73.9703 23.6634V19.583H75.6612V18.2641H73.9703V16.253H72.43Z" fill="white"/>
<path d="M80.0233 26.3157C82.3016 26.3157 83.6987 24.7637 83.6987 22.1915C83.6987 19.634 82.2944 18.0746 80.0233 18.0746C77.7449 18.0746 76.3407 19.634 76.3407 22.1915C76.3407 24.7637 77.7378 26.3157 80.0233 26.3157ZM80.0233 24.924C78.6835 24.924 77.9312 23.9257 77.9312 22.1915C77.9312 20.4719 78.6835 19.4664 80.0233 19.4664C81.3559 19.4664 82.1153 20.4719 82.1153 22.1915C82.1153 23.9184 81.3559 24.924 80.0233 24.924Z" fill="white"/>
<path d="M84.894 26.1627H86.4344V21.4775C86.4344 20.3626 87.2583 19.6121 88.4262 19.6121C88.6984 19.6121 89.1569 19.6631 89.2859 19.7068V18.1621C89.1211 18.1184 88.8274 18.0965 88.5981 18.0965C87.5807 18.0965 86.7138 18.6649 86.4917 19.4445H86.3771V18.2277H84.894V26.1627Z" fill="white"/>
<path d="M93.1106 19.4081C94.2498 19.4081 94.9949 20.2169 95.0308 21.4629H91.0902C91.1762 20.2242 91.9715 19.4081 93.1106 19.4081ZM95.0236 24.0205C94.737 24.6398 94.0994 24.9823 93.168 24.9823C91.9357 24.9823 91.1404 24.1006 91.0902 22.7089V22.6214H96.5998V22.075C96.5998 19.583 95.2887 18.0746 93.1178 18.0746C90.9183 18.0746 89.5212 19.685 89.5212 22.2207C89.5212 24.7564 90.8896 26.3157 93.125 26.3157C94.909 26.3157 96.1556 25.4413 96.5067 24.0205H95.0236Z" fill="white"/>
<path d="M62.3283 23.2324C62.4472 25.1809 64.0437 26.427 66.42 26.427C68.9597 26.427 70.5488 25.1205 70.5488 23.0361C70.5488 21.3972 69.6428 20.4909 67.4448 19.9698L66.2641 19.6753C64.868 19.343 64.3036 18.8974 64.3036 18.1195C64.3036 17.1377 65.1799 16.4958 66.4943 16.4958C67.7418 16.4958 68.6032 17.1226 68.7592 18.1271H70.378C70.2815 16.2919 68.6923 15.0004 66.5165 15.0004C64.1774 15.0004 62.618 16.2919 62.618 18.2328C62.618 19.8339 63.5016 20.7855 65.4398 21.2462L66.821 21.586C68.2393 21.9259 68.8631 22.4243 68.8631 23.2551C68.8631 24.2218 67.8829 24.9241 66.5462 24.9241C65.113 24.9241 64.118 24.2671 63.9769 23.2324H62.3283Z" fill="white"/>
<path d="M46.3715 18.0965C45.3112 18.0965 44.3941 18.6357 43.9213 19.5392H43.8066V18.2277H42.3236V28.8004H43.8639V24.9604H43.9857C44.3941 25.7984 45.2754 26.2939 46.3859 26.2939C48.3561 26.2939 49.6099 24.7127 49.6099 22.1915C49.6099 19.6704 48.3561 18.0965 46.3715 18.0965ZM45.9345 24.8876C44.6449 24.8876 43.8353 23.8529 43.8353 22.1988C43.8353 20.5375 44.6449 19.5028 45.9417 19.5028C47.2456 19.5028 48.0266 20.5156 48.0266 22.1915C48.0266 23.8747 47.2456 24.8876 45.9345 24.8876Z" fill="white"/>
<path d="M55 18.0965C53.9396 18.0965 53.0226 18.6357 52.5497 19.5392H52.4351V18.2277H50.952V28.8004H52.4924V24.9604H52.6142C53.0226 25.7984 53.9038 26.2939 55.0143 26.2939C56.9846 26.2939 58.2384 24.7127 58.2384 22.1915C58.2384 19.6704 56.9846 18.0965 55 18.0965ZM54.5629 24.8876C53.2733 24.8876 52.4637 23.8529 52.4637 22.1988C52.4637 20.5375 53.2733 19.5028 54.5701 19.5028C55.8741 19.5028 56.655 20.5156 56.655 22.1915C56.655 23.8747 55.8741 24.8876 54.5629 24.8876Z" fill="white"/>
<path d="M39.5598 26.1627H41.3272L37.4583 15.2648H35.6687L31.7998 26.1627H33.5078L34.4954 23.2702H38.5796L39.5598 26.1627ZM36.4781 17.2435H36.6043L38.1564 21.8503H34.9187L36.4781 17.2435Z" fill="white"/>
<path d="M32.9995 7.44997V12.5263H34.8569C36.3899 12.5263 37.2777 11.5941 37.2777 9.97231C37.2777 8.37518 36.3828 7.44997 34.8569 7.44997H32.9995ZM33.7981 8.16762H34.7678C35.8338 8.16762 36.4648 8.83603 36.4648 9.98287C36.4648 11.1473 35.8445 11.8087 34.7678 11.8087H33.7981V8.16762Z" fill="white"/>
<path d="M39.9964 12.6002C41.1301 12.6002 41.8253 11.8509 41.8253 10.6091C41.8253 9.37427 41.1266 8.62143 39.9964 8.62143C38.8627 8.62143 38.164 9.37427 38.164 10.6091C38.164 11.8509 38.8592 12.6002 39.9964 12.6002ZM39.9964 11.9283C39.3298 11.9283 38.9554 11.4463 38.9554 10.6091C38.9554 9.77883 39.3298 9.29335 39.9964 9.29335C40.6595 9.29335 41.0374 9.77883 41.0374 10.6091C41.0374 11.4428 40.6595 11.9283 39.9964 11.9283Z" fill="white"/>
<path d="M47.7456 8.69531H46.9791L46.2875 11.6187H46.2268L45.4283 8.69531H44.6938L43.8953 11.6187H43.8382L43.143 8.69531H42.3658L43.4354 12.5263H44.2232L45.0218 9.70495H45.0824L45.8846 12.5263H46.6796L47.7456 8.69531Z" fill="white"/>
<path d="M48.6283 12.5263H49.3948V10.2854C49.3948 9.68736 49.7549 9.31446 50.3217 9.31446C50.8886 9.31446 51.1596 9.62052 51.1596 10.2362V12.5263H51.9261V10.0462C51.9261 9.13505 51.4483 8.62143 50.582 8.62143C49.9973 8.62143 49.6123 8.87824 49.4233 9.30391H49.3663V8.69531H48.6283V12.5263Z" fill="white"/>
<path d="M53.1332 12.5263H53.8997V7.2002H53.1332V12.5263Z" fill="white"/>
<path d="M56.7825 12.6002C57.9162 12.6002 58.6114 11.8509 58.6114 10.6091C58.6114 9.37427 57.9126 8.62143 56.7825 8.62143C55.6488 8.62143 54.95 9.37427 54.95 10.6091C54.95 11.8509 55.6452 12.6002 56.7825 12.6002ZM56.7825 11.9283C56.1158 11.9283 55.7415 11.4463 55.7415 10.6091C55.7415 9.77883 56.1158 9.29335 56.7825 9.29335C57.4456 9.29335 57.8235 9.77883 57.8235 10.6091C57.8235 11.4428 57.4456 11.9283 56.7825 11.9283Z" fill="white"/>
<path d="M60.8952 11.9529C60.4781 11.9529 60.175 11.7524 60.175 11.4076C60.175 11.0699 60.4175 10.8905 60.9522 10.8553L61.9006 10.7955V11.1156C61.9006 11.5906 61.4728 11.9529 60.8952 11.9529ZM60.6991 12.5896C61.2089 12.5896 61.6332 12.3715 61.8649 11.9881H61.9255V12.5263H62.6635V9.90899C62.6635 9.09987 62.1145 8.62143 61.1412 8.62143C60.2606 8.62143 59.6331 9.04358 59.5547 9.70143H60.2963C60.3818 9.43055 60.6777 9.27577 61.1055 9.27577C61.6296 9.27577 61.9006 9.50443 61.9006 9.90899V10.2397L60.8489 10.2995C59.9255 10.3558 59.405 10.7533 59.405 11.4428C59.405 12.1429 59.9504 12.5896 60.6991 12.5896Z" fill="white"/>
<path d="M65.2646 12.5896C65.7994 12.5896 66.2522 12.3399 66.4839 11.9212H66.5445V12.5263H67.2789V7.2002H66.5124V9.30391H66.4554C66.245 8.88176 65.7958 8.63199 65.2646 8.63199C64.2842 8.63199 63.6532 9.39889 63.6532 10.6091C63.6532 11.8227 64.2771 12.5896 65.2646 12.5896ZM65.4821 9.31094C66.1238 9.31094 66.5267 9.81401 66.5267 10.6126C66.5267 11.4147 66.1274 11.9107 65.4821 11.9107C64.8332 11.9107 64.4446 11.4217 64.4446 10.6091C64.4446 9.80345 64.8368 9.31094 65.4821 9.31094Z" fill="white"/>
<path d="M72.2494 12.6002C73.3831 12.6002 74.0783 11.8509 74.0783 10.6091C74.0783 9.37427 73.3796 8.62143 72.2494 8.62143C71.1157 8.62143 70.4169 9.37427 70.4169 10.6091C70.4169 11.8509 71.1121 12.6002 72.2494 12.6002ZM72.2494 11.9283C71.5827 11.9283 71.2084 11.4463 71.2084 10.6091C71.2084 9.77883 71.5827 9.29335 72.2494 9.29335C72.9125 9.29335 73.2904 9.77883 73.2904 10.6091C73.2904 11.4428 72.9125 11.9283 72.2494 11.9283Z" fill="white"/>
<path d="M75.093 12.5263H75.8595V10.2854C75.8595 9.68736 76.2195 9.31446 76.7864 9.31446C77.3533 9.31446 77.6242 9.62052 77.6242 10.2362V12.5263H78.3907V10.0462C78.3907 9.13505 77.913 8.62143 77.0467 8.62143C76.462 8.62143 76.0769 8.87824 75.888 9.30391H75.8309V8.69531H75.093V12.5263Z" fill="white"/>
<path d="M81.9209 7.74195V8.7129H81.3041V9.34964H81.9209V11.5132C81.9209 12.2519 82.2596 12.5474 83.1116 12.5474C83.2614 12.5474 83.404 12.5298 83.5288 12.5087V11.879C83.4218 11.8896 83.3541 11.8966 83.2364 11.8966C82.855 11.8966 82.6874 11.7207 82.6874 11.3197V9.34964H83.5288V8.7129H82.6874V7.74195H81.9209Z" fill="white"/>
<path d="M84.5577 12.5263H85.3242V10.2889C85.3242 9.70847 85.6735 9.31798 86.301 9.31798C86.8429 9.31798 87.1317 9.62756 87.1317 10.2397V12.5263H87.8982V10.0532C87.8982 9.14208 87.3884 8.62495 86.5613 8.62495C85.9766 8.62495 85.5666 8.88176 85.3776 9.31094H85.317V7.2002H84.5577V12.5263Z" fill="white"/>
<path d="M90.6633 9.26521C91.2302 9.26521 91.6009 9.6557 91.6188 10.2573H89.6579C89.7007 9.65922 90.0964 9.26521 90.6633 9.26521ZM91.6152 11.4921C91.4726 11.7911 91.1553 11.9564 90.6918 11.9564C90.0786 11.9564 89.6829 11.5307 89.6579 10.8588V10.8166H92.3995V10.5528C92.3995 9.34964 91.7471 8.62143 90.6669 8.62143C89.5724 8.62143 88.8772 9.39889 88.8772 10.6231C88.8772 11.8474 89.5581 12.6002 90.6704 12.6002C91.5581 12.6002 92.1785 12.178 92.3532 11.4921H91.6152Z" fill="white"/>
<path d="M23.3282 17.0916C23.3465 15.6557 24.1109 14.2971 25.3234 13.5451C24.5585 12.4429 23.2772 11.7442 21.9442 11.7021C20.5225 11.5515 19.1441 12.5604 18.4196 12.5604C17.6811 12.5604 16.5656 11.717 15.3644 11.742C13.7987 11.793 12.3391 12.691 11.5774 14.072C9.93992 16.9321 11.1613 21.1354 12.7299 23.4473C13.5146 24.5793 14.4318 25.8438 15.6319 25.799C16.8063 25.7499 17.2449 25.0435 18.6625 25.0435C20.0669 25.0435 20.4784 25.799 21.7028 25.7705C22.963 25.7499 23.757 24.6334 24.5142 23.4906C25.0781 22.684 25.512 21.7925 25.7998 20.8492C24.3189 20.2173 23.3299 18.7137 23.3282 17.0916Z" fill="white"/>
<path d="M21.0154 10.1817C21.7025 9.34957 22.041 8.28001 21.959 7.20016C20.9093 7.31139 19.9396 7.81753 19.2433 8.61773C18.5623 9.39956 18.2079 10.4503 18.2749 11.4889C19.325 11.4998 20.3574 11.0074 21.0154 10.1817Z" fill="white"/>
</svg>
