<svg width="72" height="99" viewBox="0 0 72 99" fill="none" xmlns="http://www.w3.org/2000/svg">
<path d="M16.8473 96.5643C12.1751 95.1383 5.92685 93.0821 1.61856 90.9102M1.61856 90.9102C1.12208 90.6601 4.03123 87.6671 4.17703 87.5404C7.3725 84.7579 10.8348 82.4763 14.4136 80.2264M1.61856 90.9102C28.1077 92.9195 50.4361 78.0064 54.4933 59.5764C54.8954 57.7498 55.3312 55.7612 55.5874 53.743M55.5874 53.743C55.9954 50.5289 55.948 47.2396 54.5842 44.409C53.3254 41.7968 50.5794 38.9238 47.5394 38.7267C41.8605 38.3587 38.8491 45.2566 41.8598 49.8166C44.5054 53.8238 51.3122 55.8553 55.5874 53.743ZM55.5874 53.743C55.6775 53.6985 55.7666 53.6521 55.8544 53.6038C77.0616 41.9544 71.6427 14.1524 56.3401 1.66526" stroke="#2EB1BE" stroke-width="3" stroke-miterlimit="1.5" stroke-linecap="round" stroke-linejoin="round"/>
</svg>
