<svg width="155" height="17" viewBox="0 0 155 17" fill="none" xmlns="http://www.w3.org/2000/svg">
<path fill-rule="evenodd" clip-rule="evenodd" d="M92.6011 9.77652C72.0649 9.08197 51.4902 9.33491 30.9851 10.5909C21.2363 11.1882 9.95657 10.4961 0.422576 13.7035C-0.0525329 13.8652 0.0202509 14.4241 0.0287504 14.4801C0.04567 14.5946 0.119734 14.9764 0.493203 15.0134C0.533778 15.018 0.821959 14.9794 0.932282 14.9663C3.72936 14.6285 6.51866 14.211 9.31698 13.8997C18.9785 12.8194 28.6571 12.1207 38.3455 11.568C51.205 10.8335 64.155 10.7433 77.0251 10.8079C84.0698 10.8439 91.2614 11.6143 98.3384 11.3187C100.931 11.4283 103.522 11.5537 106.114 11.6923C116.947 12.2777 127.753 13.3458 138.547 14.6115C142.018 15.0184 144.663 15.4029 148.063 15.7427C149.354 15.8726 151.404 16.0188 152.83 16.1184C153.039 16.134 153.573 16.1656 153.795 16.1792C153.817 16.1856 153.839 16.1867 153.864 16.1879C153.949 16.1922 153.99 16.1862 153.998 16.1866C154.485 16.1181 154.458 15.5218 154.448 15.4314C154.447 15.4128 154.389 14.9075 153.973 14.8684C153.873 14.8582 153.16 14.8177 152.886 14.7989C151.468 14.6998 149.426 14.554 148.141 14.427C144.748 14.0875 142.105 13.703 138.64 13.2965C127.829 12.0299 117.007 10.9585 106.158 10.3722C104.832 10.3015 103.505 10.2333 102.18 10.1704C102.139 10.0177 102.045 9.8438 101.828 9.75902C101.624 9.68022 100.157 9.54689 99.5912 9.45814C95.4071 8.80188 95.5305 8.82913 90.9231 8.23394C83.9452 7.33123 82.8838 7.15181 75.6157 6.55739C62.4137 5.47679 49.1918 4.85802 35.9737 4.24733C29.4479 3.94875 22.4442 4.17659 15.8516 2.7799C18.0447 2.55504 20.2433 2.42037 22.4389 2.25116C29.9355 1.67479 37.4275 1.45781 44.9386 1.41634C62.9559 1.31739 80.9838 1.81401 98.925 4.04902C95.0959 3.90745 91.267 3.82933 87.4372 3.71153C71.8474 3.23755 56.1227 2.23861 40.5283 3.00465C40.249 3.01994 40.0301 3.32644 40.0396 3.6892C40.0489 4.0546 40.2867 4.33874 40.566 4.3261C56.1401 3.55905 71.8424 4.55953 87.4118 5.03251C93.1962 5.20985 98.9811 5.29996 104.76 5.64365C106.744 5.76278 108.725 5.95587 110.708 6.08557C111.1 6.11287 112.107 6.26312 112.253 6.228C112.575 6.15135 112.653 5.84843 112.678 5.69893C112.691 5.60965 112.739 5.09371 112.256 4.88477C108.965 3.4581 102.818 3.21262 99.5894 2.80454C81.4282 0.505781 63.1768 -0.00450411 44.9355 0.0939534C37.4061 0.137164 29.8957 0.35589 22.3787 0.933897C19.7526 1.13472 17.1218 1.29036 14.5027 1.59995C14.0798 1.65046 13.1315 1.70676 12.6709 1.79243C12.4785 1.82788 12.3383 1.88438 12.276 1.92626C12.0329 2.08878 11.9826 2.34017 11.9775 2.51181C11.9715 2.64374 12.0002 3.11058 12.4944 3.26193C20.0247 5.56704 28.3044 5.21713 35.9361 5.56771C49.1461 6.17799 62.3579 6.79626 75.5517 7.87646C82.8015 8.46997 83.8589 8.64655 90.8226 9.54855C91.5101 9.63541 92.0921 9.7117 92.6011 9.77652Z" fill="#EB9D1F"/>
</svg>
